PathFileType	3	(X/Y/Z)	D:\Jess\PFP\Labelled\PA09\20250730\SRRun01.trc
DataRate	CameraRate	NumFrames	NumMarkers	Units	OrigDataRate	OrigDataStartFrame	OrigNumFrames
250.0	250.0	5	37	mm	250.0	35000	2501
Frame#	Time	C7			T10			CLAV			LSHO			RSHO			LASIS			RASIS			LPSIS			RPSIS			LILCR			RILCR			LGTR			LTHI			LLTHI			LLEP			LMEP			LPSH			LLSH			LDSH			LLMAL			LMMAL			LTOE			L5TH			LHEE			RGTR			RTHI			RLTHI			RLEP			RMEP			RPSH			RLSH			RDSH			RLMAL			RMMAL			RTOE			R5TH			RHEE			
		X1	Y1	Z1	X2	Y2	Z2	X3	Y3	Z3	X4	Y4	Z4	X5	Y5	Z5	X6	Y6	Z6	X7	Y7	Z7	X8	Y8	Z8	X9	Y9	Z9	X10	Y10	Z10	X11	Y11	Z11	X12	Y12	Z12	X13	Y13	Z13	X14	Y14	Z14	X15	Y15	Z15	X16	Y16	Z16	X17	Y17	Z17	X18	Y18	Z18	X19	Y19	Z19	X20	Y20	Z20	X21	Y21	Z21	X22	Y22	Z22	X23	Y23	Z23	X24	Y24	Z24	X25	Y25	Z25	X26	Y26	Z26	X27	Y27	Z27	X28	Y28	Z28	X29	Y29	Z29	X30	Y30	Z30	X31	Y31	Z31	X32	Y32	Z32	X33	Y33	Z33	X34	Y34	Z34	X35	Y35	Z35	X36	Y36	Z36	X37	Y37	Z37	

1	139.996	1167.419292045147	1363.181229046523	-225.3446553615962	1047.616939249146	1141.247273570637	-248.6802496507364	1284.154610822656	1240.649354356328	-244.6943698860256	1202.996268507389	1355.332406807829	-393.2690565627214	1223.546933338168	1310.783449575091	-66.55840053097234	1151.705301692321	918.1694194796059	-372.2335837829833	1147.786371724291	923.9423443829894	-147.9746884538417	1004.381577400966	972.5537623031826	-273.8344556687532	1002.670953944356	971.1290503564519	-241.454159667523	1106.065248537814	980.4489789097056	-404.7319956188418	1115.70409788946	977.4388447855847	-120.4955885684697	1121.95387183331	813.8691599494655	-419.2210994799737	1246.744814323276	680.4182944841293	-374.7223733125568	1185.947641652549	580.0174765009654	-417.340467213847	1200.651786950167	474.5409939351951	-399.0575438993257	nan	nan	nan	1184.939793501701	375.7990266441266	-367.6317481137981	1058.878166847944	394.1647333163745	-409.1518572633102	1011.123008470762	287.6603400714981	-369.1214660305187	891.8397208348563	275.704206318753	-394.2871433329271	nan	nan	nan	945.8649351463033	136.3663241679841	-406.9286143807782	911.1596824020621	145.7242666032084	-444.2871556813615	823.0913024949965	310.3083429335205	-339.1910965078044	1081.506609330567	813.1263638698009	-98.38338420321934	1190.243489101168	651.0908204884885	-173.6208112071971	1116.200270236847	575.9906188330627	-126.7234137770692	1101.882849627459	442.3645084350401	-153.5189377807261	nan	nan	nan	1119.391496367755	351.9233236367273	-215.0644312419116	1003.021058419346	280.0838681967216	-162.0121534776522	1008.084278789111	187.1437548783323	-223.1947852797784	895.2193617580107	113.0141608145771	-202.9266403247228	nan	nan	nan	1039.973880055924	60.85636016085356	-185.9078456760502	1006.096406984582	44.42293767748321	-144.1729447517455	822.2156195681787	95.19036998106417	-249.6174270399197	
2	140	1167.483134364665	1366.477868746734	-225.2882247115803	1048.08832413912	1144.077618969732	-247.4223702081592	1284.358023334815	1244.246794490281	-246.5476965094625	1200.886033669732	1358.987858039823	-393.3680641349662	1225.970910631151	1314.124649642488	-67.715501131032	1151.332670789898	921.8977753059266	-372.0440935083573	1148.138895624801	926.2725818954598	-148.083304300365	1004.421124192246	975.8931480706794	-273.6897935162254	1003.104037029637	974.3851575331711	-241.4018830635739	1105.619836227776	984.3502377134993	-404.6189468983493	1117.146443056395	980.1568256711911	-121.2435472910333	1122.620958992021	818.2808625834078	-419.5826573174938	1247.746107979454	686.0508024923591	-374.07744843467	1188.674504534082	584.802189724495	-416.8753801964186	1204.560412823354	478.8339366601391	-398.5148680579414	nan	nan	nan	1191.772353650004	379.5998845835774	-366.6953779825423	1065.69681814707	393.0936066798617	-409.0262627368817	1021.671094597386	285.4976123217856	-368.5416163737108	903.3448065598674	269.1052292629607	-394.1363954751605	nan	nan	nan	962.684994973177	132.6148153877166	-405.9155517478138	927.8588981134601	140.3696775451957	-443.3705759075914	833.2001670154414	301.0482870591296	-339.4359826811157	1080.821193455087	815.6121026565684	-98.95972332176044	1185.434822644	651.7691225543138	-175.5841406700472	1110.017662692843	578.2158485946036	-127.5551531962721	1092.774450425162	444.8869720251656	-153.9795462242895	nan	nan	nan	1109.450614069144	354.0299495599661	-215.4604670655798	992.6034288303949	283.1674334653346	-161.9832078337079	997.3142188911314	189.7086159964688	-222.9838232973338	884.4447722108525	115.7573552281337	-202.3623861262371	nan	nan	nan	1028.154824848828	60.89776519501324	-185.7439273286012	993.8279689732929	44.76472705325628	-144.162822746418	811.1616313114991	99.275956589194	-248.9217121951642	
3	140.004	1167.547730086768	1369.749922929085	-225.2329604258823	1048.558060927999	1146.885535730715	-246.1734074719038	1284.5601836241	1247.817878172856	-248.3811926424169	1198.804115517	1362.615735607311	-393.4668087995833	1228.366242236543	1317.442063972325	-68.85990281138552	1150.960236930183	925.6083177541332	-371.860407855741	1148.496903232424	928.5789077447896	-148.1968184282126	1004.46297878179	979.2082408964627	-273.5465300388252	1003.53717755428	977.6168943328154	-241.3508328563751	1105.172728221361	988.2254656789596	-404.5107677007184	1118.574890438091	982.8582178275635	-121.9863592077581	1123.277710371225	822.6643221361162	-419.9392591517466	1248.730851426916	691.6463949812728	-373.4287591799571	1191.384588558018	589.5540225771043	-416.4124541971919	1208.428772509565	483.0982636515054	-397.9729336481182	nan	nan	nan	1198.537241068852	383.3704858649763	-365.7605290704911	1072.445528394305	392.0250500663346	-408.8986553024734	1032.117452852738	283.3439955616745	-367.9636733048041	914.7329811918273	262.5471513763643	-393.9858557594305	nan	nan	nan	979.3463485085988	128.8750491737479	-404.9190914464728	944.400651774131	135.040101075837	-442.469784308721	843.2066800440672	291.8508763577492	-339.6733666558779	1080.145328276308	818.0754617770403	-99.53595032056259	1180.674673889724	652.4530642342264	-177.5510974153646	1103.921839097695	580.4223266595902	-128.3780719443334	1083.767430584554	447.3896875756565	-154.4316670699102	nan	nan	nan	1099.599601169944	356.1286509315805	-215.8504397649187	982.2817911691933	286.2324245322976	-161.9539888259671	986.6460602900811	192.2596851118394	-222.7723114782399	873.7749870127274	118.4801124370072	-201.8076696250665	nan	nan	nan	1016.451353320788	60.93715678289779	-185.5863547432712	981.6770431706885	45.09591445987252	-144.1585955217145	800.2067157569505	103.3324842588198	-248.2424786620327	
4	140.008	1167.617533671948	1372.993850785586	-225.1835748023767	1049.033193364215	1149.667012487965	-244.93940651281	1284.761537791152	1251.362004660176	-250.1872136082872	1196.770272011976	1366.209124685021	-393.5655672492395	1230.719981246521	1320.734096553436	-69.99245145935608	1150.593284062259	929.3013541108811	-371.6932020844978	1148.872280064878	930.8502664026969	-148.3272552517425	1004.519672286828	982.4995622095208	-273.4006076331817	1003.980701731901	980.8245755380615	-241.2964522389354	1104.727457163435	992.0730758808709	-404.412808268007	1119.995263480618	985.5381634838824	-122.7278021819248	1123.913319471431	827.0207855074667	-420.2955875696081	1249.689242362339	697.1909655137918	-372.7838176339909	1194.044160403225	594.2607678283367	-415.9496110756594	1212.212348028161	487.3125037569055	-397.4363867053651	nan	nan	nan	1205.194158943478	387.1006226177853	-364.8272988948754	1079.119494807136	390.9447035210231	-408.767399392884	1042.466699024211	281.2061814133051	-367.38166430928	926.0408616784639	256.038051760201	-393.8266232926604	nan	nan	nan	995.8636710095775	125.1882827053195	-403.928737627953	960.8138764688811	129.7750575581168	-441.5742011474454	853.168869553544	282.7150036896911	-339.8927053817372	1079.489046161708	820.5143557980701	-100.1119113104843	1175.98764990468	653.1577123350066	-179.5094670183045	1097.957943389713	582.6211785502048	-129.1770322961121	1074.904747634818	449.8928841957652	-154.8585300145598	nan	nan	nan	1089.873405515813	358.2443066331962	-216.2144892690258	972.0954256292097	289.2985566445004	-161.910330714801	976.1237157347524	194.8179443394701	-222.5423180037716	863.2540664122544	121.2029865805758	-201.2517521672733	nan	nan	nan	1004.881851075265	60.97788705757462	-185.4273834014134	969.6610005831182	45.42091168183882	-144.1563810982702	789.4023500381523	107.397507202904	-247.5797104465742	
5	140.012	1167.696924152802	1376.207719057607	-225.1447142604524	1049.520931252941	1152.419424757453	-243.725955300551	1284.962555621042	1254.880359472429	-251.9595608519622	1194.80208878081	1369.762984285759	-393.6646044558565	1233.021400936458	1324.000768081346	-71.11491689143674	1150.23716716174	932.9780225900894	-371.5531054691691	1149.276381680891	933.0770972610655	-148.48658698279	1004.603759278814	985.7693077073488	-273.2476617046208	1004.445020126758	984.0101687073778	-241.2338590879617	1104.287776290246	995.8933103083128	-404.330054323229	1121.414556095362	988.1924021985214	-123.4719625146743	1124.517229669559	831.3533776538447	-420.6570535002596	1250.612917109659	702.6734472311033	-372.1506927375154	1196.619999875852	598.9123137856066	-415.4841451253213	1215.869026685256	491.4571669024227	-396.9095856892897	nan	nan	nan	1211.707621205814	390.78216258907	-363.8960280500406	1085.719139484929	389.8382168130867	-408.6310858798749	1052.731301888484	279.0904773349188	-366.7896352831809	937.3144889492374	249.5831276771474	-393.6500119970166	nan	nan	nan	1012.263951297614	121.5950085389972	-402.9325920899841	977.1396760152541	124.6123880449686	-440.6718965055327	863.1530599705939	273.6353365827123	-340.084346114429	1078.861540298273	822.9281219446679	-100.6873750830944	1171.395163350771	653.8975227840218	-181.4463635795595	1092.164426003397	584.8243835980495	-129.9373498757643	1066.221374657215	452.4179376801389	-155.2437554378558	nan	nan	nan	1080.300491685132	360.4022776166377	-216.5325161538109	962.076281065309	292.3870823022739	-161.8380147891785	965.7838622977623	197.4051314463405	-222.2750829627983	852.9182554544749	123.9478858394585	-200.6831387241253	nan	nan	nan	993.4561368843817	61.02318948784848	-185.2582313860436	957.7882466109809	45.74487854532867	-144.1516814754888	778.7934719028916	111.5107313640635	-246.9322182714644	
